<?xml version="1.0" encoding="UTF-8" standalone="no"?>
<svg
   version="1.1"
   id="Layer_1"
   x="0"
   y="0"
   viewBox="0 0 1014.24 1014.24"
   xml:space="preserve"
   width="1014.24"
   height="1014.24"
   xmlns="http://www.w3.org/2000/svg"
   xmlns:svg="http://www.w3.org/2000/svg"><defs
     id="defs19" /><style
     id="style2">.st1{fill:#091c38}</style><g
     id="g920"
     transform="translate(-71.949996,197.60149)"><path
       d="M 472.7,456.7 H 326.1 c -9.5,0 -18.2,-5.1 -22.8,-13.3 l -68.1,-121 c -4.5,-8 -4.5,-17.7 0,-25.7 l 68.1,-121 c 4.6,-8.2 13.4,-13.3 22.8,-13.3 h 83.3 c 9.5,0 18.2,-5.1 22.8,-13.3 L 494,39.2 c 4.9,-8.7 -1.4,-19.5 -11.4,-19.5 H 258 c -18.9,0 -36.4,10.2 -45.6,26.7 L 78.7,283.8 c -9,15.9 -9,35.4 0,51.4 l 133.6,237.5 c 9.3,16.5 26.7,26.7 45.6,26.7 h 287.9 c 10,0 16.3,-10.8 11.4,-19.5 L 495.5,470 c -4.6,-8.2 -13.3,-13.3 -22.8,-13.3 z"
       style="clip-rule:evenodd;fill:#2272ad;fill-rule:evenodd"
       id="path4" /><path
       class="st1"
       d="M 867.4,123.2 810.6,26.1 c -5.1,-8.7 -17.7,-8.6 -22.7,0.2 L 546.8,454.6 c -4.5,8 -4.5,17.7 0,25.7 l 62.8,112.3 c 5,8.9 17.8,8.9 22.8,0.1 L 867.8,175.3 c 9.1,-16.2 9,-36 -0.4,-52.1 z"
       id="path6" /><path
       d="m 578,319.6 71.3,-126.9 c 4.6,-8.1 4.5,-18 -0.2,-26 L 567.6,26.2 c -5.1,-8.8 -17.8,-8.7 -22.7,0.1 l -69.3,123.2 c -4.4,7.9 -4.5,17.5 -0.1,25.5 l 79.7,144.5 c 4.9,9 17.8,9.1 22.8,0.1 z"
       style="clip-rule:evenodd;fill:#091c38;fill-rule:evenodd"
       id="path8" /><path
       class="st1"
       d="m 1079,123.2 -56.8,-97.1 c -5.1,-8.7 -17.7,-8.6 -22.7,0.2 L 758.2,454.6 c -4.5,8 -4.5,17.7 0,25.7 l 63.3,112.3 c 5,8.9 17.8,8.9 22.8,0 l 235.2,-417.4 c 9.1,-16.1 8.9,-35.9 -0.5,-52 z"
       id="path10" /></g></svg>
